<?xml version="1.0" encoding="UTF-8"?>
<!DOCTYPE svg PUBLIC "-//W3C//DTD SVG 1.1//EN" "http://www.w3.org/Graphics/SVG/1.1/DTD/svg11.dtd">
<svg xmlns="http://www.w3.org/2000/svg" version="1.1" width="512px" height="512px" style="shape-rendering:geometricPrecision; text-rendering:geometricPrecision; image-rendering:optimizeQuality; fill-rule:evenodd; clip-rule:evenodd" xmlns:xlink="http://www.w3.org/1999/xlink">
<g><path style="opacity:0.995" fill="#fe0302" d="M 227.5,9.5 C 229.783,9.60791 231.783,10.4412 233.5,12C 245.217,21.3847 257.217,30.3847 269.5,39C 270.574,39.7387 271.241,40.7387 271.5,42C 264.701,49.1302 257.534,55.9635 250,62.5C 248.692,64.6414 247.192,66.6414 245.5,68.5C 255.71,75.0343 265.377,82.3676 274.5,90.5C 284.709,83.8935 295.709,79.2269 307.5,76.5C 302.54,65.2563 296.04,54.923 288,45.5C 287.333,44.5 287.333,43.5 288,42.5C 303.664,35.5016 319.33,28.5016 335,21.5C 336.107,21.5852 337.107,21.9186 338,22.5C 343.746,33.6601 349.746,44.6601 356,55.5C 358.403,59.6347 360.237,63.9681 361.5,68.5C 346.298,71.7688 331.965,77.2688 318.5,85C 325.693,93.7126 331.36,103.379 335.5,114C 347.101,112.897 358.767,112.397 370.5,112.5C 370.213,105.773 369.379,99.1066 368,92.5C 365.685,84.2427 363.851,75.9093 362.5,67.5C 380.126,65.6399 397.793,64.4733 415.5,64C 418.098,81.0931 420.431,98.2598 422.5,115.5C 414.822,115.477 407.155,115.144 399.5,114.5C 393.934,114.365 388.601,115.199 383.5,117C 386.596,128.256 388.429,139.756 389,151.5C 400.811,154.938 412.311,159.271 423.5,164.5C 427.74,153.206 430.573,141.539 432,129.5C 432.893,128.919 433.893,128.585 435,128.5C 451.03,134.266 467.197,139.599 483.5,144.5C 478.657,161.539 473.657,178.539 468.5,195.5C 467.127,195.657 465.793,195.49 464.5,195C 451.705,188.1 438.372,182.6 424.5,178.5C 422.746,189.516 419.746,200.182 415.5,210.5C 421.331,215.493 427.331,220.326 433.5,225C 436.372,227.537 438.872,230.37 441,233.5C 450.813,222.547 459.146,210.547 466,197.5C 466.561,196.978 467.228,196.645 468,196.5C 481.156,206.986 494.322,217.486 507.5,228C 508.059,228.725 508.392,229.558 508.5,230.5C 498.774,244.402 488.441,257.902 477.5,271C 476.056,271.781 474.723,271.614 473.5,270.5C 465.8,261.799 457.467,253.799 448.5,246.5C 445.013,251.463 441.513,256.463 438,261.5C 433.978,266.021 430.144,270.688 426.5,275.5C 432.818,285.466 437.484,296.133 440.5,307.5C 444.556,305.975 448.556,304.141 452.5,302C 459.199,296.987 466.199,292.487 473.5,288.5C 474.167,288.833 474.833,289.167 475.5,289.5C 482.697,304.728 490.03,319.894 497.5,335C 483.182,343.495 468.515,351.495 453.5,359C 451.866,359.494 450.199,359.66 448.5,359.5C 444.963,344.874 439.296,331.207 431.5,318.5C 422.206,325.065 412.373,330.731 402,335.5C 402.997,346.419 403.664,357.419 404,368.5C 418.614,367.748 433.114,365.081 447.5,360.5C 448.167,360.833 448.833,361.167 449.5,361.5C 451.267,378.805 452.934,396.139 454.5,413.5C 436.515,415.665 418.515,417.665 400.5,419.5C 400.578,412.49 400.911,405.49 401.5,398.5C 401.558,392.616 400.725,386.95 399,381.5C 387.174,384.618 375.174,386.618 363,387.5C 360.103,399.029 355.937,410.029 350.5,420.5C 354.524,422.76 358.858,424.26 363.5,425C 370.788,426.591 378.121,427.924 385.5,429C 386.516,429.519 387.182,430.353 387.5,431.5C 382.1,446.866 376.6,462.199 371,477.5C 370.481,478.516 369.647,479.182 368.5,479.5C 352.207,474.344 335.874,469.344 319.5,464.5C 318.417,463.635 318.251,462.635 319,461.5C 325.992,449.189 331.826,436.355 336.5,423C 326.459,420.321 316.459,417.321 306.5,414C 305.167,413.333 303.833,413.333 302.5,414C 295.722,422.614 288.389,430.781 280.5,438.5C 290.632,447.738 301.965,455.238 314.5,461C 315.99,461.745 316.99,462.912 317.5,464.5C 315.897,467.28 314.063,469.946 312,472.5C 302.633,483.529 292.966,494.196 283,504.5C 268.216,494.371 254.049,483.538 240.5,472C 250.127,463.706 259.127,454.706 267.5,445C 256.619,439.06 246.619,431.893 237.5,423.5C 227.076,429.546 216.076,434.213 204.5,437.5C 205.691,440.889 207.191,444.222 209,447.5C 214.049,455.104 219.216,462.604 224.5,470C 222.199,472.156 219.533,473.822 216.5,475C 203.38,480.978 190.213,486.811 177,492.5C 176.167,492.167 175.333,491.833 174.5,491.5C 166.5,476.833 158.5,462.167 150.5,447.5C 149.333,447.167 148.167,446.833 147,446.5C 130.168,448.473 113.335,449.473 96.5,449.5C 93.888,432.549 91.5547,415.549 89.5,398.5C 98.3583,398.269 107.192,398.603 116,399.5C 120.085,399.075 124.085,398.408 128,397.5C 125.606,386.031 123.94,374.364 123,362.5C 111.189,359.062 99.6894,354.729 88.5,349.5C 84.464,360.839 81.6307,372.506 80,384.5C 79.1074,385.081 78.1074,385.415 77,385.5C 61.2561,379.863 45.4228,374.53 29.5,369.5C 29.3379,367.473 29.5045,365.473 30,363.5C 34.659,348.527 39.159,333.527 43.5,318.5C 49.7478,320.115 55.7478,322.615 61.5,326C 69.6384,329.658 77.9718,332.824 86.5,335.5C 89.2048,324.715 92.5381,314.048 96.5,303.5C 87.2794,296.787 78.7794,289.12 71,280.5C 61.1875,291.453 52.8541,303.453 46,316.5C 45.4387,317.022 44.772,317.355 44,317.5C 31.5766,308.031 19.4099,298.198 7.5,288C 5.77268,286.611 4.43935,284.944 3.5,283C 13.437,269.392 23.7703,256.058 34.5,243C 35.8333,242.333 37.1667,242.333 38.5,243C 45.8333,251.667 53.8333,259.667 62.5,267C 63.4491,267.617 64.2825,267.451 65,266.5C 70.9861,256.691 77.8195,247.524 85.5,239C 79.5674,228.699 74.9008,217.866 71.5,206.5C 67.4438,208.025 63.4438,209.859 59.5,212C 52.8011,217.013 45.8011,221.513 38.5,225.5C 29.8261,210.819 22.1594,195.486 15.5,179.5C 15.6082,178.558 15.9415,177.725 16.5,177C 31.992,169.088 47.3253,160.921 62.5,152.5C 60.7529,135.218 59.4196,117.885 58.5,100.5C 76.204,98.412 93.8707,96.0787 111.5,93.5C 111.5,106.167 111.5,118.833 111.5,131.5C 123.727,129.263 136.06,127.763 148.5,127C 151.847,115.469 156.18,104.302 161.5,93.5C 157.876,91.3427 153.876,89.8427 149.5,89C 141.211,87.1752 132.877,85.6752 124.5,84.5C 129.49,68.3655 134.99,52.3655 141,36.5C 141.519,35.4844 142.353,34.8178 143.5,34.5C 159.804,39.4345 176.137,44.2679 192.5,49C 193.517,50.0495 193.684,51.2161 193,52.5C 186.199,64.9322 180.366,77.7655 175.5,91C 186.858,94.0058 198.191,97.0058 209.5,100C 216.278,91.386 223.611,83.2193 231.5,75.5C 220.569,66.0248 208.569,58.0248 195.5,51.5C 195.167,50.8333 194.833,50.1667 194.5,49.5C 205.492,36.1737 216.492,22.8404 227.5,9.5 Z M 105.5,144.5 C 106.496,144.414 107.329,144.748 108,145.5C 108.336,156.571 109.002,167.571 110,178.5C 99.545,183.393 89.545,189.06 80,195.5C 72.7465,182.746 67.2465,169.246 63.5,155C 63.9054,154.055 64.572,153.388 65.5,153C 78.7668,149.182 92.1001,146.348 105.5,144.5 Z M 171.5,399.5 C 173.467,399.261 175.301,399.594 177,400.5C 181.35,410.704 186.85,420.204 193.5,429C 180.291,436.07 166.458,441.57 152,445.5C 151.055,445.095 150.388,444.428 150,443.5C 145.572,430.131 142.905,416.464 142,402.5C 151.96,401.831 161.794,400.831 171.5,399.5 Z"/></g>
<g><path style="opacity:1" fill="#fffdfd" d="M 383.5,238.5 C 373.833,238.5 364.167,238.5 354.5,238.5C 347.085,197.913 323.752,171.08 284.5,158C 235.135,147.276 196.969,163.11 170,205.5C 159.195,226.018 155.695,247.685 159.5,270.5C 159.111,273.553 159.777,276.22 161.5,278.5C 174.345,319.505 202.012,343.672 244.5,351C 294.51,354.254 329.677,333.087 350,287.5C 351.509,281.466 353.009,275.466 354.5,269.5C 364.167,269.5 373.833,269.5 383.5,269.5C 375.037,325.474 343.704,361.974 289.5,379C 245.352,388.997 206.019,379.664 171.5,351C 130.863,309.947 119.363,261.78 137,206.5C 162.953,149.421 207.453,122.254 270.5,125C 325.595,133.757 362.095,164.591 380,217.5C 381.184,224.606 382.351,231.606 383.5,238.5 Z"/></g>
<g><path style="opacity:1" fill="#eb0a28" d="M 354.5,238.5 C 354.216,240.415 354.549,242.081 355.5,243.5C 354.836,252.176 354.503,260.843 354.5,269.5C 353.009,275.466 351.509,281.466 350,287.5C 329.677,333.087 294.51,354.254 244.5,351C 202.012,343.672 174.345,319.505 161.5,278.5C 161.198,275.627 160.531,272.961 159.5,270.5C 155.695,247.685 159.195,226.018 170,205.5C 196.969,163.11 235.135,147.276 284.5,158C 323.752,171.08 347.085,197.913 354.5,238.5 Z"/></g>
<g><path style="opacity:1" fill="#fefdfd" d="M 226.5,200.5 C 229.794,200.259 232.794,201.092 235.5,203C 262.336,218.919 289.336,234.586 316.5,250C 317.576,251.726 317.743,253.559 317,255.5C 289.085,271.54 261.251,287.707 233.5,304C 230.46,306.155 227.627,305.988 225,303.5C 224.333,269.833 224.333,236.167 225,202.5C 225.717,201.956 226.217,201.289 226.5,200.5 Z"/></g>
<g><path style="opacity:1" fill="#fa6365" d="M 354.5,238.5 C 364.167,238.5 373.833,238.5 383.5,238.5C 374.348,239.494 365.015,239.827 355.5,239.5C 355.5,240.833 355.5,242.167 355.5,243.5C 354.549,242.081 354.216,240.415 354.5,238.5 Z"/></g>
<g><path style="opacity:1" fill="#f19d9e" d="M 159.5,270.5 C 160.531,272.961 161.198,275.627 161.5,278.5C 159.777,276.22 159.111,273.553 159.5,270.5 Z"/></g>
</svg>
